<svg width="48" height="48" viewBox="0 0 48 48" fill="none" xmlns="http://www.w3.org/2000/svg">
<path d="M39 27.5C39.8284 27.5 40.5 28.1716 40.5 29V33C40.5 37.1421 37.1421 40.5 33 40.5H15C10.8579 40.5 7.5 37.1421 7.5 33V29C7.5 28.1716 8.17157 27.5 9 27.5C9.82843 27.5 10.5 28.1716 10.5 29V33C10.5 35.4853 12.5147 37.5 15 37.5H33C35.4853 37.5 37.5 35.4853 37.5 33V29C37.5 28.1716 38.1716 27.5 39 27.5ZM24 8C24.8284 8 25.5 8.67157 25.5 9.5V25.6875L29.5039 22.1846C30.4771 21.333 32 22.0242 32 23.3174C31.9999 23.7513 31.8129 24.1645 31.4863 24.4502L25.3174 29.8477C24.5633 30.5075 23.4367 30.5075 22.6826 29.8477L16.5137 24.4502C16.1871 24.1645 16.0001 23.7513 16 23.3174C16 22.0242 17.5229 21.333 18.4961 22.1846L22.5 25.6875V9.5C22.5 8.67157 23.1716 8 24 8Z" fill="black"/>
</svg>
