<svg width="48" height="48" viewBox="0 0 48 48" fill="none" xmlns="http://www.w3.org/2000/svg">
<path d="M36.2041 8.01074C37.2128 8.11301 38 8.96435 38 10V29.248C38 29.3514 37.9903 29.4537 37.9746 29.5547C37.9881 29.61 37.998 29.6671 37.998 29.7266L37.9863 29.8574C37.9629 29.9856 37.9051 30.1058 37.8184 30.2051L37.5283 30.5342C37.52 30.5441 37.5135 30.5556 37.5049 30.5654L29.8477 39.3174L29.8223 39.3428L29.5049 39.7061C29.3416 39.8927 29.1054 40 28.8574 40C28.7878 40 28.721 39.9883 28.6562 39.9727C28.6234 39.9779 28.5908 39.9847 28.5576 39.9883L28.3428 40H12L11.7959 39.9893C10.7872 39.887 10 39.0357 10 38V10C10 8.89543 10.8954 8 12 8H36L36.2041 8.01074ZM12 38H27.998V31C27.998 29.9643 28.7853 29.113 29.7939 29.0107L29.998 29H36V10H12V38ZM29.998 36.1055L34.4658 31H29.998V36.1055Z" fill="black"/>
<rect x="16" y="16" width="16" height="2" fill="black"/>
<rect x="16" y="21" width="16" height="2" fill="black"/>
<rect x="16" y="26" width="12" height="2" fill="black"/>
</svg>
