<svg width="48" height="48" viewBox="0 0 48 48" fill="none" xmlns="http://www.w3.org/2000/svg">
<path d="M26.2041 5.00684C27.2128 5.1091 28 5.96044 28 6.99609V9.08789C28.0001 9.97262 28.5881 10.7387 29.4043 11.0801C29.4234 11.0881 29.4428 11.0964 29.4619 11.1045C30.2857 11.4532 31.256 11.3317 31.8887 10.6992L33.3691 9.21973C34.1502 8.43884 35.4163 8.43875 36.1973 9.21973L39.0254 12.0479C39.8066 12.829 39.8068 14.096 39.0254 14.877L37.4316 16.4697C36.8193 17.0819 36.6871 18.0102 37.0078 18.8145C37.3163 19.588 38.0106 20.1686 38.8281 20.2383L38.9941 20.2451H41.25C42.3546 20.2451 43.25 21.1405 43.25 22.2451V26.2451L43.2393 26.4492C43.1438 27.3908 42.3957 28.1389 41.4541 28.2344L41.25 28.2451H38.7227C37.9009 28.2452 37.1833 28.7885 36.8574 29.543C36.5229 30.3178 36.6407 31.2283 37.2373 31.8252L39.0264 33.6143C39.8072 34.3953 39.8072 35.6614 39.0264 36.4424L36.1973 39.2715L36.0459 39.4082C35.3126 40.0067 34.2538 40.0067 33.5205 39.4082L33.3691 39.2715L31.4463 37.3486C30.882 36.7847 30.0259 36.6617 29.2871 36.9629C28.5403 37.2673 28 37.9689 28 38.7754V41.4951L27.9893 41.6992C27.887 42.7079 27.0357 43.4951 26 43.4951H22C20.8954 43.4951 20 42.5997 20 41.4951V38.7754C19.9999 37.9689 19.4589 37.2682 18.7119 36.9639C17.9727 36.6628 17.1161 36.7851 16.5518 37.3496L14.6309 39.2715L14.4795 39.4082C13.7462 40.0066 12.6874 40.0065 11.9541 39.4082L11.8027 39.2715L8.97461 36.4434C8.19362 35.6624 8.19372 34.3963 8.97461 33.6152L10.7627 31.8262C11.3593 31.2292 11.4771 30.3188 11.1426 29.5439C10.837 28.8365 10.1871 28.3142 9.42969 28.252L9.27734 28.2461H6.75098C5.64641 28.2461 4.75098 27.3507 4.75098 26.2461V22.2461C4.75098 21.1415 5.64641 20.2461 6.75098 20.2461H9.00488C9.8382 20.2461 10.5659 19.7137 10.9248 18.9668L10.9912 18.8145C11.3117 18.0104 11.1794 17.0828 10.5674 16.4707L8.97461 14.877C8.19377 14.0959 8.19374 12.8298 8.97461 12.0488L11.8027 9.21973C12.5837 8.43893 13.8498 8.43899 14.6309 9.21973L16.1104 10.6992C16.7036 11.2923 17.5939 11.4359 18.3818 11.1641L18.5381 11.1045L18.5957 11.0801C19.3611 10.7602 19.9257 10.0665 19.9932 9.25195L20 9.08789V6.99609C20 5.89152 20.8954 4.99609 22 4.99609H26L26.2041 5.00684ZM23 9.08789C22.9999 11.3599 21.5121 13.1123 19.7529 13.8477C19.7377 13.854 19.7222 13.8608 19.707 13.8672C17.935 14.6172 15.6143 14.4451 13.9893 12.8203L13.2158 12.0479L11.8018 13.4619L12.6895 14.3496C14.2633 15.9239 14.4791 18.1672 13.7773 19.9268C13.0688 21.7027 11.3135 23.2461 9.00488 23.2461H7.75098V25.2461H9.27734C11.334 25.2462 12.9553 26.4983 13.749 28.042L13.8965 28.3545L14.0273 28.6875C14.6232 30.3827 14.3653 32.4654 12.8838 33.9473L11.8018 35.0283L13.2168 36.4424L14.4307 35.2285L14.5752 35.0889C15.993 33.7807 17.9194 33.5385 19.5186 34.0654L19.8438 34.1855L20.1611 34.3271C21.7269 35.0946 22.9999 36.7135 23 38.7754V40.4951H25V38.7754C25 36.5761 26.4488 34.8812 28.1553 34.1855L28.4805 34.0654C30.0796 33.5382 32.0052 33.7811 33.4229 35.0889L33.5684 35.2275L34.7832 36.4424L36.1973 35.0283L35.1162 33.9473C33.5358 32.3669 33.3484 30.102 34.1035 28.3535L34.251 28.041C35.0446 26.4974 36.666 25.2452 38.7227 25.2451H40.25V23.2451H38.9941C36.6857 23.2451 34.93 21.7018 34.2217 19.9258C33.5199 18.1659 33.7365 15.9219 35.3115 14.3477L36.1963 13.4619L34.7822 12.0479L34.0098 12.8213C32.3847 14.4457 30.0641 14.6167 28.292 13.8662C28.277 13.8598 28.2612 13.854 28.2461 13.8477C26.4877 13.1121 25.0001 11.3598 25 9.08789V7.99609H23V9.08789ZM24 17C27.866 17 31 20.134 31 24C31 27.866 27.866 31 24 31C20.134 31 17 27.866 17 24C17 20.134 20.134 17 24 17ZM24 20C21.7909 20 20 21.7909 20 24C20 26.2091 21.7909 28 24 28C26.2091 28 28 26.2091 28 24C28 21.7909 26.2091 20 24 20Z" fill="black"/>
</svg>
