<svg width="48" height="48" viewBox="0 0 48 48" fill="none" xmlns="http://www.w3.org/2000/svg">
<path d="M33.8995 33.8995C34.4853 33.3137 34.4853 32.3639 33.8995 31.7781L26.1214 24L33.8995 16.2218C34.4853 15.636 34.4853 14.6863 33.8995 14.1005C33.3137 13.5147 32.364 13.5147 31.7782 14.1005L24 21.8786L16.2219 14.1005C15.6361 13.5147 14.6863 13.5147 14.1005 14.1005C13.5148 14.6863 13.5148 15.636 14.1005 16.2218L21.8787 24L14.1005 31.7781C13.5148 32.3639 13.5148 33.3137 14.1005 33.8995C14.6863 34.4852 15.6361 34.4852 16.2219 33.8995L24 26.1213L31.7782 33.8995C32.364 34.4852 33.3137 34.4852 33.8995 33.8995Z" fill="black"/>
</svg>
