<svg width="48" height="48" viewBox="0 0 48 48" fill="none" xmlns="http://www.w3.org/2000/svg">
<path d="M39 27.5002C39.8284 27.5002 40.5 28.1718 40.5 29.0002V33.0002C40.4999 37.1422 37.142 40.5002 33 40.5002H15C10.858 40.5002 7.50015 37.1422 7.5 33.0002V29.0002C7.5 28.1718 8.17157 27.5002 9 27.5002C9.82843 27.5002 10.5 28.1718 10.5 29.0002V33.0002C10.5001 35.4854 12.5148 37.5002 15 37.5002H33C35.4852 37.5002 37.4999 35.4854 37.5 33.0002V29.0002C37.5 28.1718 38.1716 27.5002 39 27.5002ZM22.6826 10.1526C23.4367 9.49277 24.5633 9.49277 25.3174 10.1526L31.4863 15.55C31.8129 15.8358 32 16.2489 32 16.6828C32 17.976 30.4771 18.6671 29.5039 17.8156L25.5 14.3117V30.5002C25.4999 31.3285 24.8283 32.0002 24 32.0002C23.1717 32.0002 22.5001 31.3285 22.5 30.5002V14.3117L18.4961 17.8156C17.5229 18.6671 16 17.976 16 16.6828C16 16.2489 16.1871 15.8358 16.5137 15.55L22.6826 10.1526Z" fill="black"/>
</svg>
